<?xml version="1.0" standalone="no"?>
<!DOCTYPE svg PUBLIC "-//W3C//DTD SVG 20010904//EN"
 "http://www.w3.org/TR/2001/REC-SVG-20010904/DTD/svg10.dtd">
<svg version="1.0" xmlns="http://www.w3.org/2000/svg"
 width="260.000000pt" height="260.000000pt" viewBox="0 0 260.000000 260.000000"
 preserveAspectRatio="xMidYMid meet">
<metadata>
Created by potrace 1.11, written by Peter Selinger 2001-2013
</metadata>
<g transform="translate(0.000000,260.000000) scale(0.100000,-0.100000)"
fill="#000000" stroke="none">
<path d="M140 2583 c-42 -28 -91 -76 -116 -115 l-24 -38 0 -1125 c0 -1090 1
-1127 19 -1163 19 -37 75 -95 121 -126 22 -15 122 -16 1160 -16 l1136 0 48 34
c27 19 63 55 82 82 l34 48 0 1127 c0 674 -4 1138 -9 1152 -13 33 -67 94 -115
129 l-39 28 -1136 -1 c-1033 0 -1138 -2 -1161 -16z m975 -853 c0 -42 -2 -45
-27 -48 -32 -4 -33 -7 -14 -64 16 -48 71 -232 79 -263 3 -11 15 -51 27 -90 12
-38 39 -129 60 -201 46 -159 53 -174 85 -174 23 0 25 -4 25 -45 l0 -45 -128 0
c-71 0 -131 2 -133 4 -3 3 -3 23 -1 45 4 40 5 41 43 41 47 0 49 9 18 107 -39
126 -16 113 -196 113 -87 0 -163 -4 -169 -8 -15 -9 -66 -190 -58 -203 3 -6 22
-9 43 -7 l36 3 3 -47 3 -48 -135 0 -136 0 0 45 c0 40 3 45 23 45 12 0 27 4 33
8 6 4 25 54 42 112 48 165 109 370 126 425 43 140 66 220 66 232 0 7 -11 13
-25 13 -23 0 -25 3 -25 50 l0 50 168 -2 167 -3 0 -45z m875 -22 l69 -73 1 -77
c0 -84 -2 -87 -67 -80 -32 4 -33 5 -33 56 0 49 -3 54 -47 97 l-48 46 -98 -1
-97 -1 -37 -37 -36 -36 1 -93 c1 -91 1 -93 35 -127 l34 -34 134 1 133 2 68
-68 68 -67 0 -140 0 -140 -67 -68 -67 -68 -167 0 -167 0 -67 73 -66 72 3 75 3
75 48 3 47 3 0 -54 c0 -51 3 -57 46 -101 l47 -46 112 0 113 0 36 40 36 40 0
97 0 98 -41 37 -42 38 -132 0 -132 0 -61 62 -62 61 0 133 0 134 66 70 66 70
149 0 149 0 70 -72z"/>
<path d="M931 1629 c-5 -13 -20 -64 -34 -114 -13 -49 -37 -130 -52 -180 -43
-139 -51 -127 100 -127 l130 0 -1 23 c-1 13 -20 85 -43 159 -23 74 -49 160
-57 190 -18 68 -30 81 -43 49z"/>
</g>
</svg>
